<svg width="232" height="50" viewBox="0 0 232 50" fill="none" xmlns="http://www.w3.org/2000/svg">
<path d="M37.8862 42.742C36.7604 42.742 35.8114 42.3721 35.0394 41.6322C34.2996 40.8924 33.9297 39.9435 33.9297 38.7855C33.9297 37.6275 34.2996 36.6947 35.0394 35.987C35.8114 35.2472 36.7604 34.8773 37.8862 34.8773C39.012 34.8773 39.9449 35.2472 40.6847 35.987C41.4567 36.7268 41.8427 37.6597 41.8427 38.7855C41.8427 39.9435 41.4567 40.8924 40.6847 41.6322C39.9449 42.3721 39.012 42.742 37.8862 42.742Z" fill="#FFC36A"/>
<path d="M46.9167 50V16.073H50.2384V50H46.9167Z" fill="#FFC36A"/>
<path d="M62.2383 45.1503L67.088 28.1761H71.6953L76.5208 45.1503H73.8292L72.7137 41.1492H66.0696L64.9541 45.1503H62.2383ZM66.7243 38.7244H72.059L69.5857 29.8008H69.1977L66.7243 38.7244Z" fill="#111827"/>
<path d="M84.4462 45.4898C83.2984 45.4898 82.2557 45.2473 81.3181 44.7623C80.3966 44.2773 79.6611 43.5741 79.1114 42.6527C78.578 41.7312 78.3112 40.6238 78.3112 39.3306V39.0153C78.3112 37.7221 78.578 36.6228 79.1114 35.7175C79.6611 34.7961 80.3966 34.0928 81.3181 33.6079C82.2557 33.1067 83.2984 32.8562 84.4462 32.8562C85.5939 32.8562 86.572 33.0663 87.3803 33.4866C88.1885 33.9069 88.8352 34.4647 89.3202 35.1598C89.8213 35.8549 90.1446 36.6228 90.2901 37.4634L87.8652 37.9726C87.7844 37.4392 87.6147 36.9542 87.356 36.5177C87.0974 36.0812 86.7336 35.7337 86.2648 35.475C85.796 35.2164 85.206 35.087 84.4947 35.087C83.7995 35.087 83.1691 35.2487 82.6033 35.572C82.0536 35.8792 81.6171 36.3318 81.2938 36.9299C80.9705 37.5119 80.8088 38.2232 80.8088 39.0638V39.2821C80.8088 40.1227 80.9705 40.8421 81.2938 41.4402C81.6171 42.0384 82.0536 42.491 82.6033 42.7981C83.1691 43.1053 83.7995 43.2589 84.4947 43.2589C85.5454 43.2589 86.3456 42.9921 86.8953 42.4587C87.4449 41.909 87.7925 41.2139 87.938 40.3733L90.3629 40.931C90.1689 41.7554 89.8213 42.5152 89.3202 43.2104C88.8352 43.9055 88.1885 44.4632 87.3803 44.8835C86.572 45.2877 85.5939 45.4898 84.4462 45.4898Z" fill="#111827"/>
<path d="M93.2435 45.1503V28.1761H95.7411V34.8931H96.1291C96.2908 34.5859 96.5171 34.2868 96.8081 33.9958C97.1152 33.7049 97.5113 33.4705 97.9963 33.2926C98.4974 33.0986 99.1279 33.0016 99.8877 33.0016C100.793 33.0016 101.593 33.2037 102.288 33.6079C103 34.012 103.557 34.5859 103.961 35.3295C104.366 36.057 104.568 36.938 104.568 37.9726V45.1503H102.07V38.1666C102.07 37.132 101.811 36.3722 101.294 35.8873C100.777 35.3861 100.066 35.1355 99.1602 35.1355C98.1256 35.1355 97.2931 35.475 96.6626 36.154C96.0483 36.833 95.7411 37.8191 95.7411 39.1123V45.1503H93.2435Z" fill="#111827"/>
<path d="M112.317 45.1503C111.589 45.1503 111.007 44.932 110.571 44.4956C110.15 44.0591 109.94 43.4771 109.94 42.7496V35.3053H106.642V33.1956H109.94V29.2431H112.438V33.1956H116.002V35.3053H112.438V42.3132C112.438 42.7981 112.664 43.0406 113.117 43.0406H115.615V45.1503H112.317Z" fill="#111827"/>
<path d="M123.991 45.4898C122.778 45.4898 121.719 45.2392 120.814 44.738C119.909 44.2207 119.198 43.5014 118.68 42.5799C118.179 41.6423 117.929 40.5592 117.929 39.3306V39.0396C117.929 37.7948 118.179 36.7117 118.68 35.7903C119.181 34.8526 119.877 34.1333 120.766 33.6321C121.671 33.1148 122.714 32.8562 123.894 32.8562C125.042 32.8562 126.044 33.1148 126.901 33.6321C127.774 34.1333 128.453 34.8365 128.938 35.7418C129.422 36.647 129.665 37.7059 129.665 38.9183V39.864H120.475C120.507 40.9148 120.855 41.7554 121.517 42.3859C122.196 43.0002 123.037 43.3074 124.039 43.3074C124.977 43.3074 125.68 43.0972 126.149 42.6769C126.634 42.2566 127.006 41.7716 127.264 41.222L129.325 42.2889C129.099 42.7416 128.768 43.2185 128.331 43.7196C127.911 44.2207 127.353 44.6411 126.658 44.9805C125.963 45.32 125.074 45.4898 123.991 45.4898ZM120.499 37.9484H127.119C127.054 37.0431 126.731 36.3399 126.149 35.8388C125.567 35.3214 124.807 35.0628 123.87 35.0628C122.932 35.0628 122.164 35.3214 121.566 35.8388C120.984 36.3399 120.628 37.0431 120.499 37.9484Z" fill="#111827"/>
<path d="M132.671 45.1503V33.1956H135.121V34.99H135.509C135.735 34.5051 136.139 34.0524 136.721 33.6321C137.303 33.2118 138.168 33.0016 139.316 33.0016C140.221 33.0016 141.021 33.2037 141.716 33.6079C142.428 34.012 142.985 34.5859 143.389 35.3295C143.794 36.057 143.996 36.938 143.996 37.9726V45.1503H141.498V38.1666C141.498 37.132 141.239 36.3722 140.722 35.8873C140.205 35.3861 139.493 35.1355 138.588 35.1355C137.554 35.1355 136.721 35.475 136.09 36.154C135.476 36.833 135.169 37.8191 135.169 39.1123V45.1503H132.671Z" fill="#111827"/>
<path d="M154.501 45.4898C153.337 45.4898 152.44 45.2796 151.809 44.8593C151.195 44.439 150.734 43.9702 150.427 43.4529H150.039V45.1503H147.59V28.1761H150.088V34.8203H150.476C150.67 34.497 150.928 34.1898 151.252 33.8989C151.575 33.5917 152.003 33.3411 152.537 33.1471C153.07 32.9532 153.725 32.8562 154.501 32.8562C155.503 32.8562 156.425 33.0986 157.265 33.5836C158.106 34.0686 158.777 34.7718 159.278 35.6933C159.779 36.6147 160.03 37.714 160.03 38.9911V39.3548C160.03 40.6481 159.771 41.7554 159.254 42.6769C158.753 43.5822 158.082 44.2773 157.241 44.7623C156.417 45.2473 155.503 45.4898 154.501 45.4898ZM153.774 43.3074C154.857 43.3074 155.746 42.9598 156.441 42.2647C157.152 41.5695 157.508 40.5753 157.508 39.2821V39.0638C157.508 37.7867 157.16 36.8006 156.465 36.1055C155.77 35.4104 154.873 35.0628 153.774 35.0628C152.707 35.0628 151.817 35.4104 151.106 36.1055C150.411 36.8006 150.063 37.7867 150.063 39.0638V39.2821C150.063 40.5753 150.411 41.5695 151.106 42.2647C151.817 42.9598 152.707 43.3074 153.774 43.3074Z" fill="#111827"/>
<path d="M168.605 45.4898C167.392 45.4898 166.333 45.2392 165.428 44.738C164.523 44.2207 163.812 43.5014 163.294 42.5799C162.793 41.6423 162.542 40.5592 162.542 39.3306V39.0396C162.542 37.7948 162.793 36.7117 163.294 35.7903C163.795 34.8526 164.49 34.1333 165.38 33.6321C166.285 33.1148 167.328 32.8562 168.508 32.8562C169.655 32.8562 170.658 33.1148 171.515 33.6321C172.387 34.1333 173.066 34.8365 173.551 35.7418C174.036 36.647 174.279 37.7059 174.279 38.9183V39.864H165.089C165.121 40.9148 165.468 41.7554 166.131 42.3859C166.81 43.0002 167.651 43.3074 168.653 43.3074C169.591 43.3074 170.294 43.0972 170.763 42.6769C171.248 42.2566 171.62 41.7716 171.878 41.222L173.939 42.2889C173.713 42.7416 173.382 43.2185 172.945 43.7196C172.525 44.2207 171.967 44.6411 171.272 44.9805C170.577 45.32 169.688 45.4898 168.605 45.4898ZM165.113 37.9484H171.733C171.668 37.0431 171.345 36.3399 170.763 35.8388C170.181 35.3214 169.421 35.0628 168.483 35.0628C167.546 35.0628 166.778 35.3214 166.18 35.8388C165.598 36.3399 165.242 37.0431 165.113 37.9484Z" fill="#111827"/>
<path d="M177.285 45.1503V33.1956H179.734V34.6021H180.122C180.316 34.1009 180.624 33.7372 181.044 33.5109C181.48 33.2684 182.014 33.1471 182.644 33.1471H184.075V35.4023H182.547C181.739 35.4023 181.076 35.6286 180.559 36.0812C180.042 36.5177 179.783 37.1967 179.783 38.1181V45.1503H177.285Z" fill="#111827"/>
<path d="M185.655 39.2336V38.8698C185.655 37.6089 185.905 36.5339 186.406 35.6448C186.924 34.7556 187.603 34.0686 188.443 33.5836C189.284 33.0986 190.205 32.8562 191.208 32.8562C192.371 32.8562 193.261 33.0744 193.875 33.5109C194.505 33.9474 194.966 34.4162 195.257 34.9173H195.645V33.1956H198.07V47.5994C198.07 48.3269 197.852 48.9088 197.415 49.3453C196.995 49.7818 196.413 50 195.669 50H187.619V47.8176H194.893C195.362 47.8176 195.597 47.5751 195.597 47.0902V43.2831H195.209C195.031 43.5741 194.78 43.8732 194.457 44.1803C194.134 44.4875 193.705 44.738 193.172 44.932C192.654 45.126 192 45.223 191.208 45.223C190.205 45.223 189.276 44.9886 188.419 44.5198C187.578 44.0348 186.907 43.3478 186.406 42.4587C185.905 41.5534 185.655 40.4783 185.655 39.2336ZM191.887 43.0406C192.97 43.0406 193.859 42.7011 194.554 42.0222C195.265 41.3271 195.621 40.3733 195.621 39.1608V38.9426C195.621 37.6978 195.273 36.744 194.578 36.0812C193.883 35.4023 192.986 35.0628 191.887 35.0628C190.82 35.0628 189.93 35.4023 189.219 36.0812C188.524 36.744 188.176 37.6978 188.176 38.9426V39.1608C188.176 40.3733 188.524 41.3271 189.219 42.0222C189.93 42.7011 190.82 43.0406 191.887 43.0406Z" fill="#111827"/>
</svg>