<svg width="32" height="20" viewBox="0 0 32 20" fill="none" xmlns="http://www.w3.org/2000/svg">
<path fill-rule="evenodd" clip-rule="evenodd" d="M20.586 0.586062C20.9611 0.211119 21.4697 0.000488281 22 0.000488281C22.5303 0.000488281 23.0389 0.211119 23.414 0.586062L31.414 8.58606C31.7889 8.96112 31.9996 9.46973 31.9996 10.0001C31.9996 10.5304 31.7889 11.039 31.414 11.4141L23.414 19.4141C23.0368 19.7784 22.5316 19.98 22.0072 19.9754C21.4828 19.9709 20.9812 19.7605 20.6104 19.3897C20.2395 19.0189 20.0292 18.5173 20.0247 17.9929C20.0201 17.4685 20.2217 16.9633 20.586 16.5861L25.172 12.0001H2C1.46957 12.0001 0.960859 11.7893 0.585786 11.4143C0.210714 11.0392 0 10.5305 0 10.0001C0 9.46963 0.210714 8.96092 0.585786 8.58585C0.960859 8.21078 1.46957 8.00006 2 8.00006H25.172L20.586 3.41406C20.2111 3.03901 20.0004 2.53039 20.0004 2.00006C20.0004 1.46973 20.2111 0.961117 20.586 0.586062V0.586062Z" fill="white"/>
</svg>