<svg width="48" height="48" viewBox="0 0 48 48" fill="none" xmlns="http://www.w3.org/2000/svg">
<rect width="48" height="48" rx="24" fill="#F59E0B"/>
<path fill-rule="evenodd" clip-rule="evenodd" d="M26.7515 18.3516C26.9765 18.1266 27.2817 18.0002 27.5999 18.0002C27.9181 18.0002 28.2233 18.1266 28.4483 18.3516L33.2483 23.1516C33.4733 23.3766 33.5996 23.6818 33.5996 24C33.5996 24.3182 33.4733 24.6234 33.2483 24.8484L28.4483 29.6484C28.222 29.867 27.9189 29.9879 27.6042 29.9852C27.2896 29.9825 26.9886 29.8563 26.7661 29.6338C26.5436 29.4113 26.4174 29.1103 26.4147 28.7957C26.412 28.481 26.5329 28.1779 26.7515 27.9516L29.5031 25.2H15.5999C15.2816 25.2 14.9764 25.0736 14.7514 24.8485C14.5263 24.6235 14.3999 24.3182 14.3999 24C14.3999 23.6817 14.5263 23.3765 14.7514 23.1515C14.9764 22.9264 15.2816 22.8 15.5999 22.8H29.5031L26.7515 20.0484C26.5265 19.8234 26.4002 19.5182 26.4002 19.2C26.4002 18.8818 26.5265 18.5766 26.7515 18.3516Z" fill="#111827"/>
</svg>