<svg width="36" height="36" viewBox="0 0 36 36" fill="none" xmlns="http://www.w3.org/2000/svg">
<path fill-rule="evenodd" clip-rule="evenodd" d="M22.1275 9.5275C22.465 9.19006 22.9228 9.00049 23.4001 9.00049C23.8774 9.00049 24.3351 9.19006 24.6727 9.5275L31.8727 16.7275C32.2101 17.0651 32.3997 17.5228 32.3997 18.0001C32.3997 18.4774 32.2101 18.9352 31.8727 19.2727L24.6727 26.4727C24.3332 26.8006 23.8785 26.982 23.4066 26.9779C22.9346 26.9738 22.4832 26.7845 22.1494 26.4508C21.8157 26.117 21.6264 25.6656 21.6223 25.1936C21.6182 24.7217 21.7996 24.267 22.1275 23.9275L26.2549 19.8001H5.4001C4.92271 19.8001 4.46487 19.6105 4.12731 19.2729C3.78974 18.9353 3.6001 18.4775 3.6001 18.0001C3.6001 17.5227 3.78974 17.0649 4.12731 16.7273C4.46487 16.3897 4.92271 16.2001 5.4001 16.2001H26.2549L22.1275 12.0727C21.7901 11.7352 21.6005 11.2774 21.6005 10.8001C21.6005 10.3228 21.7901 9.86505 22.1275 9.5275Z" fill="#111827"/>
</svg>
