<svg width="32" height="20" viewBox="0 0 32 20" fill="none" xmlns="http://www.w3.org/2000/svg">
<path fill-rule="evenodd" clip-rule="evenodd" d="M11.414 19.4139C11.0389 19.7889 10.5303 19.9995 10 19.9995C9.46967 19.9995 8.96106 19.7889 8.586 19.4139L0.585999 11.4139C0.211056 11.0389 0.000427246 10.5303 0.000427246 9.99994C0.000427246 9.46961 0.211056 8.96099 0.585999 8.58594L8.586 0.585937C8.9632 0.221621 9.46841 0.0200322 9.9928 0.0245891C10.5172 0.0291459 11.0188 0.239483 11.3896 0.6103C11.7605 0.981116 11.9708 1.48274 11.9753 2.00714C11.9799 2.53153 11.7783 3.03673 11.414 3.41394L6.828 7.99994L30 7.99994C30.5304 7.99994 31.0391 8.21065 31.4142 8.58572C31.7893 8.9608 32 9.4695 32 9.99994C32 10.5304 31.7893 11.0391 31.4142 11.4142C31.0391 11.7892 30.5304 11.9999 30 11.9999L6.828 11.9999L11.414 16.5859C11.7889 16.961 11.9996 17.4696 11.9996 17.9999C11.9996 18.5303 11.7889 19.0389 11.414 19.4139V19.4139Z" fill="white"/>
</svg>
