<svg width="24" height="24" viewBox="0 0 24 24" fill="none" xmlns="http://www.w3.org/2000/svg">
<path fill-rule="evenodd" clip-rule="evenodd" d="M3.1245 10.5H6.0435C6.177 8.181 6.618 6.045 7.299 4.323C6.20251 4.99488 5.26262 5.89379 4.54256 6.95926C3.82251 8.02472 3.33898 9.23205 3.1245 10.5ZM12 0C8.8174 0 5.76516 1.26428 3.51472 3.51472C1.26428 5.76516 0 8.8174 0 12C0 15.1826 1.26428 18.2348 3.51472 20.4853C5.76516 22.7357 8.8174 24 12 24C15.1826 24 18.2348 22.7357 20.4853 20.4853C22.7357 18.2348 24 15.1826 24 12C24 8.8174 22.7357 5.76516 20.4853 3.51472C18.2348 1.26428 15.1826 0 12 0ZM12 3C11.886 3 11.652 3.048 11.3025 3.393C10.9455 3.744 10.557 4.3275 10.197 5.166C9.6135 6.5265 9.1875 8.379 9.048 10.5H14.952C14.8125 8.379 14.3865 6.5265 13.803 5.166C13.443 4.326 13.053 3.744 12.6975 3.393C12.348 3.048 12.114 3 12 3ZM17.9565 10.5C17.823 8.181 17.382 6.045 16.701 4.323C17.7975 4.99488 18.7374 5.89379 19.4574 6.95926C20.1775 8.02472 20.661 9.23205 20.8755 10.5H17.9565ZM14.952 13.5H9.048C9.1875 15.621 9.6135 17.4735 10.197 18.834C10.557 19.674 10.947 20.256 11.3025 20.607C11.652 20.952 11.886 21 12 21C12.114 21 12.348 20.952 12.6975 20.607C13.0545 20.256 13.4445 19.6725 13.803 18.834C14.3865 17.4735 14.8125 15.621 14.952 13.5ZM16.701 19.677C17.382 17.9565 17.823 15.819 17.9565 13.5H20.8755C20.661 14.768 20.1775 15.9753 19.4574 17.0407C18.7374 18.1062 17.7975 19.0051 16.701 19.677ZM7.299 19.677C6.618 17.955 6.177 15.819 6.045 13.5H3.1245C3.33898 14.768 3.82251 15.9753 4.54256 17.0407C5.26262 18.1062 6.20251 19.0051 7.299 19.677Z" fill="black"/>
</svg>
