<svg width="30" height="31" viewBox="0 0 30 31" fill="none" xmlns="http://www.w3.org/2000/svg">
<path fill-rule="evenodd" clip-rule="evenodd" d="M11.7863 11.9056H16.4287V14.2181C17.0975 12.8881 18.8125 11.6931 21.3888 11.6931C26.3275 11.6931 27.5 14.3406 27.5 19.1981V28.1943H22.5V20.3043C22.5 17.5381 21.8313 15.9781 20.1287 15.9781C17.7675 15.9781 16.7863 17.6593 16.7863 20.3031V28.1943H11.7863V11.9056ZM3.2125 27.9818H8.2125V11.6931H3.2125V27.9818ZM8.92875 6.38184C8.92894 6.80093 8.84582 7.21588 8.68423 7.60257C8.52265 7.98926 8.28581 8.33998 7.9875 8.63434C7.383 9.23512 6.56476 9.5714 5.7125 9.56934C4.86174 9.56876 4.04539 9.23334 3.44 8.63559C3.14276 8.34023 2.90673 7.98912 2.74543 7.60238C2.58413 7.21564 2.50072 6.80087 2.5 6.38184C2.5 5.53559 2.8375 4.72559 3.44125 4.12809C4.04611 3.52953 4.8628 3.19396 5.71375 3.19434C6.56625 3.19434 7.38375 3.53059 7.9875 4.12809C8.59 4.72559 8.92875 5.53559 8.92875 6.38184Z" fill="white"/>
</svg>