<svg width="30" height="25" viewBox="0 0 30 25" fill="none" xmlns="http://www.w3.org/2000/svg">
<path d="M30 3.61667C28.8766 4.10434 27.685 4.42444 26.4649 4.56634C27.7358 3.81992 28.7116 2.63795 29.1711 1.22965C27.963 1.93217 26.6412 2.42715 25.2628 2.69319C24.14 1.52109 22.5405 0.788574 20.7702 0.788574C17.3711 0.788574 14.6152 3.48898 14.6152 6.81958C14.6152 7.29235 14.6696 7.75259 14.7745 8.19412C9.6593 7.94253 5.12414 5.54149 2.0884 1.89257C1.55871 2.78333 1.2552 3.81946 1.2552 4.92461C1.2552 7.01709 2.34188 8.86302 3.99328 9.94463C3.01588 9.91464 2.05998 9.65595 1.20539 9.19018C1.20504 9.21545 1.20504 9.24071 1.20504 9.26609C1.20504 12.1882 3.3266 14.6259 6.14215 15.18C5.2358 15.4215 4.28511 15.4569 3.3627 15.2833C4.14586 17.6794 6.41895 19.423 9.11215 19.4718C7.0057 21.0894 4.35176 22.0536 1.46824 22.0536C0.971367 22.0536 0.481523 22.025 0 21.9693C2.72379 23.6806 5.95898 24.679 9.43477 24.679C20.7559 24.679 26.9466 15.4889 26.9466 7.51902C26.9466 7.25744 26.9407 6.99734 26.9288 6.73874C28.1337 5.88517 29.1737 4.82794 30 3.61667Z" fill="#55ACEE"/>
</svg>