<svg width="144" height="143" viewBox="0 0 144 143" fill="none" xmlns="http://www.w3.org/2000/svg">
<g filter="url(#filter0_dd_307_8221)">
<rect x="10" y="0.097168" width="124" height="124" rx="41.0443" fill="#00618A" shape-rendering="crispEdges"/>
<path d="M23.8242 83.3104H27.0742V69.8622L32.1057 81.5859C32.6994 83.0049 33.512 83.507 35.1056 83.507C36.6995 83.507 37.4807 83.0049 38.0746 81.5859L43.1059 69.8622V83.3104H46.3561V69.8842C46.3561 68.5744 45.8559 67.9411 44.8248 67.6139C42.356 66.8061 40.6996 67.5046 39.9495 69.2512L35.0119 80.8216L30.2306 69.2512C29.5119 67.5046 27.8243 66.8061 25.3556 67.6139C24.3242 67.9411 23.8242 68.5744 23.8242 69.8842V83.3104Z" fill="white"/>
<path d="M49.0576 72.3637H52.3067V79.7727C52.2763 80.1753 52.4299 81.1199 54.2104 81.1493C55.1187 81.1642 61.2207 81.1493 61.2777 81.1493V72.3276H64.5343C64.5492 72.3276 64.531 84.3579 64.5313 84.4091C64.5492 87.3761 61.018 88.0205 59.3904 88.0704H49.1282V85.7794C49.1462 85.7794 59.3828 85.7815 59.4086 85.7788C61.5004 85.5473 61.2534 84.4579 61.2531 84.0911V83.198H54.3452C51.1314 83.1669 49.0847 81.6972 49.0594 80.0063C49.0571 79.8496 49.1287 72.4377 49.0576 72.3637Z" fill="white"/>
<path d="M67.04 83.3087H76.3838C77.4776 83.3087 78.5403 83.0687 79.3841 82.6536C80.7902 81.9771 81.4778 81.0604 81.4778 79.8593V77.3707C81.4778 76.3882 80.6966 75.4711 79.1652 74.8601C78.3525 74.5323 77.3526 74.3578 76.3838 74.3578H72.4461C71.1339 74.3578 70.5088 73.9431 70.3526 73.0263C70.3212 72.917 70.3212 72.8295 70.3212 72.7205V71.1707C70.3212 71.0832 70.3212 70.9957 70.3526 70.8867C70.5088 70.1882 70.8527 69.9914 72.0088 69.8824C72.1027 69.8824 72.2274 69.8604 72.3213 69.8604H81.6028V67.5903H72.4775C71.165 67.5903 70.4774 67.6776 69.8525 67.8738C67.9149 68.5071 67.0712 69.5114 67.0712 71.258V73.2445C67.0712 74.7729 68.7276 76.0827 71.5087 76.3882C71.8215 76.4099 72.1338 76.4316 72.4461 76.4316H75.8212C75.9465 76.4316 76.0715 76.4316 76.1651 76.4537C77.1964 76.5412 77.6338 76.7374 77.9466 77.1304C78.1339 77.3267 78.1964 77.5235 78.1964 77.7417V79.7283C78.1964 79.9685 78.0402 80.2743 77.7279 80.5361C77.4465 80.7981 76.9778 80.9728 76.3527 81.0166C76.2277 81.0166 76.134 81.0383 76.009 81.0383H67.04V83.3087Z" fill="#E48E00"/>
<path d="M101.75 79.3573C101.75 81.6931 103.406 83.0032 106.75 83.2652C107.062 83.2869 107.375 83.3087 107.687 83.3087H116.156V81.0383H107.625C105.718 81.0383 105 80.5361 105 79.3355V67.5903H101.75V79.3573Z" fill="#E48E00"/>
<path d="M83.5498 79.477V71.3827C83.5498 69.3264 84.9278 68.0792 87.652 67.6854C87.9339 67.6419 88.2472 67.6199 88.5289 67.6199H94.698C95.0111 67.6199 95.2933 67.6419 95.6063 67.6854C98.3308 68.0792 99.7085 69.3264 99.7085 71.3827V79.477C99.7085 81.1453 99.1234 82.0382 97.7748 82.6201L100.976 85.648H97.2025L94.6125 83.1982L92.005 83.3714H88.5289C87.9339 83.3714 87.3078 83.2836 86.6187 83.0868C84.552 82.4962 83.5498 81.3585 83.5498 79.477ZM87.0578 79.2802C87.0578 79.3897 87.0889 79.499 87.1203 79.6303C87.3081 80.5709 88.1536 81.096 89.4375 81.096H92.3902L89.6779 78.5302H93.4516L95.8172 80.7679C96.253 80.5245 96.54 80.1522 96.6402 79.674C96.6713 79.5648 96.6713 79.4552 96.6713 79.346V71.5798C96.6713 71.4922 96.6713 71.3827 96.6402 71.2732C96.4521 70.3983 95.6066 69.8952 94.3541 69.8952H89.4375C87.9972 69.8952 87.0578 70.5516 87.0578 71.5798V79.2802Z" fill="#E48E00"/>
<path d="M117.278 66.9394C115.28 66.8827 113.754 67.0773 112.449 67.6539C112.078 67.8178 111.487 67.822 111.427 68.3089C111.63 68.5327 111.662 68.8669 111.824 69.1421C112.135 69.6704 112.661 70.3782 113.131 70.7495C113.643 71.155 114.172 71.5888 114.721 71.9399C115.699 72.5647 116.791 72.9214 117.732 73.5473C118.287 73.9162 118.838 74.3808 119.379 74.7971C119.647 75.0029 119.827 75.323 120.175 75.4519C120.175 75.4323 120.175 75.4124 120.175 75.3925C119.992 75.1488 119.945 74.8136 119.777 74.559C119.531 74.3012 119.285 74.0432 119.038 73.7852C118.316 72.7809 117.4 71.8988 116.425 71.1661C115.648 70.5816 113.909 69.7921 113.585 68.8446C113.566 68.8247 113.547 68.8048 113.528 68.7849C114.079 68.72 114.724 68.511 115.233 68.3683C116.087 68.1283 116.85 68.1904 117.732 67.9517C118.13 67.8326 118.527 67.7133 118.925 67.5945C118.925 67.5149 118.925 67.4359 118.925 67.3563C118.479 66.8769 118.161 66.2425 117.675 65.8086C116.403 64.6736 115.015 63.5396 113.585 62.5941C112.792 62.0696 111.812 61.7288 110.972 61.2844C110.689 61.135 110.193 61.0573 110.006 60.8081C109.565 60.2184 109.324 59.471 108.984 58.7842C108.271 57.3453 107.57 55.7739 106.939 54.2601C106.508 53.2278 106.226 52.2098 105.689 51.2837C103.11 46.8399 100.333 44.1576 96.0318 41.5212C95.1167 40.9605 94.0148 40.7391 92.8504 40.4498C92.2258 40.4102 91.6006 40.3703 90.9758 40.3307C90.5944 40.1636 90.1976 39.6747 89.8397 39.4377C88.4149 38.4945 84.7601 36.4429 83.7048 39.1402C83.0384 40.8427 84.7006 42.504 85.2951 43.3667C85.7125 43.9719 86.2467 44.6504 86.5448 45.331C86.741 45.7783 86.7749 46.2269 86.9427 46.7003C87.3557 47.8662 87.7148 49.1347 88.2491 50.2123C88.5191 50.7574 88.8168 51.3319 89.1582 51.8195C89.3675 52.1186 89.7261 52.2504 89.7828 52.7125C89.432 53.2268 89.412 54.0252 89.2148 54.6768C88.327 57.6103 88.6619 61.2564 89.9533 63.4275C90.3497 64.0939 91.283 65.5233 92.5664 64.9751C93.6891 64.4959 93.4383 63.0111 93.7594 61.7011C93.8321 61.404 93.7875 61.1857 93.9298 60.9868C93.9298 61.0065 93.9298 61.0265 93.9298 61.0464C94.2707 61.7607 94.6116 62.4749 94.9525 63.1891C95.7092 64.4662 97.0523 65.801 98.1904 66.7016C98.7806 67.1686 99.2452 67.9761 100.008 68.2492C100.008 68.2293 100.008 68.2097 100.008 68.1896C99.989 68.1896 99.9703 68.1896 99.9513 68.1896C99.8035 67.948 99.5722 67.848 99.3834 67.6539C98.9387 67.1972 98.4445 66.6294 98.0767 66.1062C97.0416 64.6336 96.1268 63.0217 95.2934 61.344C94.8953 60.543 94.5493 59.6591 94.2137 58.8438C94.0844 58.5294 94.0859 58.0542 93.8164 57.8913C93.4489 58.4887 92.9076 58.9717 92.6234 59.6772C92.1688 60.8048 92.1101 62.1799 91.9418 63.6059C91.8421 63.6433 91.8864 63.6176 91.8279 63.6653C91.0368 63.4654 90.7586 62.6119 90.4648 61.8798C89.721 60.0281 89.5828 57.0465 90.2373 54.9151C90.4066 54.3637 91.1719 52.6267 90.8622 52.1173C90.7144 51.609 90.2264 51.315 89.9533 50.9266C89.6155 50.4464 89.2781 49.8142 89.0443 49.2598C88.4356 47.816 88.1514 46.1952 87.5106 44.7359C87.2044 44.0382 86.6863 43.3322 86.2609 42.712C85.7899 42.0249 85.2625 41.5189 84.8975 40.6878C84.7677 40.3926 84.5913 39.9199 84.7839 39.6164C84.8451 39.4116 84.9314 39.3261 85.1248 39.2593C85.4543 38.9931 86.372 39.3479 86.7152 39.4973C87.6263 39.8938 88.3865 40.2714 89.1582 40.807C89.5287 41.0644 89.9032 41.5621 90.3509 41.6999C90.5213 41.6999 90.6918 41.6999 90.8622 41.6999C91.6619 41.8926 92.5578 41.7597 93.3049 41.9975C94.6255 42.4181 95.8089 43.0722 96.8837 43.7834C100.158 45.9498 102.835 49.0337 104.666 52.7125C104.961 53.3047 105.089 53.8701 105.348 54.4984C105.872 55.7653 106.531 57.069 107.052 58.3079C107.572 59.5441 108.079 60.7916 108.813 61.8202C109.2 62.361 110.692 62.651 111.37 62.9512C111.845 63.1617 112.624 63.3811 113.074 63.6653C113.934 64.209 114.767 64.8561 115.574 65.4514C115.977 65.749 117.216 66.4016 117.278 66.9394Z" fill="white"/>
</g>
<defs>
<filter id="filter0_dd_307_8221" x="0.87904" y="0.097168" width="142.242" height="142.242" filterUnits="userSpaceOnUse" color-interpolation-filters="sRGB">
<feFlood flood-opacity="0" result="BackgroundImageFix"/>
<feColorMatrix in="SourceAlpha" type="matrix" values="0 0 0 0 0 0 0 0 0 0 0 0 0 0 0 0 0 0 127 0" result="hardAlpha"/>
<feOffset dy="9.12096"/>
<feGaussianBlur stdDeviation="4.56048"/>
<feComposite in2="hardAlpha" operator="out"/>
<feColorMatrix type="matrix" values="0 0 0 0 0 0 0 0 0 0.380392 0 0 0 0 0.541176 0 0 0 0.2 0"/>
<feBlend mode="normal" in2="BackgroundImageFix" result="effect1_dropShadow_307_8221"/>
<feColorMatrix in="SourceAlpha" type="matrix" values="0 0 0 0 0 0 0 0 0 0 0 0 0 0 0 0 0 0 127 0" result="hardAlpha"/>
<feOffset dy="9.12096"/>
<feGaussianBlur stdDeviation="4.56048"/>
<feComposite in2="hardAlpha" operator="out"/>
<feColorMatrix type="matrix" values="0 0 0 0 0 0 0 0 0 0.380392 0 0 0 0 0.541176 0 0 0 0.2 0"/>
<feBlend mode="normal" in2="effect1_dropShadow_307_8221" result="effect2_dropShadow_307_8221"/>
<feBlend mode="normal" in="SourceGraphic" in2="effect2_dropShadow_307_8221" result="shape"/>
</filter>
</defs>
</svg>
