<svg width="143" height="143" viewBox="0 0 143 143" fill="none" xmlns="http://www.w3.org/2000/svg">
<g filter="url(#filter0_dd_307_8214)">
<rect x="9.5" y="0.097168" width="124" height="124" rx="41.0443" fill="#83CD29" shape-rendering="crispEdges"/>
<path d="M71.4999 103.989C70.2763 103.99 69.0742 103.692 68.0144 103.127L56.923 97.0619C55.2677 96.2061 56.0743 95.9039 56.6217 95.7273C58.3822 95.2249 60.0678 94.5212 61.6394 93.6327C61.771 93.5765 61.9159 93.5522 62.0604 93.5621C62.205 93.5721 62.3444 93.6159 62.4654 93.6895L70.9881 98.3665C71.1468 98.4441 71.3236 98.4846 71.5032 98.4846C71.6827 98.4846 71.8595 98.4441 72.0182 98.3665L105.254 80.646C105.409 80.5599 105.538 80.438 105.627 80.2922C105.716 80.1464 105.763 79.9816 105.762 79.8142V44.3671C105.762 44.197 105.715 44.0297 105.625 43.8814C105.535 43.7331 105.405 43.6087 105.247 43.5203L72.0117 25.8148C71.855 25.7332 71.6782 25.6904 71.4983 25.6904C71.3184 25.6904 71.1416 25.7332 70.9849 25.8148L37.7688 43.5263C37.6104 43.6129 37.4788 43.7357 37.3869 43.883C37.295 44.0304 37.2458 44.1971 37.2441 44.3671V79.7992C37.2445 79.9663 37.2931 80.1303 37.3847 80.2743C37.4763 80.4184 37.6078 80.5374 37.7656 80.6191L46.8811 85.4786C51.821 87.7588 54.8466 85.0717 54.8466 82.3726V47.3894C54.8466 47.1513 54.9489 46.923 55.1312 46.7546C55.3134 46.5863 55.5606 46.4917 55.8184 46.4917H60.0295C60.2872 46.4917 60.5344 46.5863 60.7166 46.7546C60.8989 46.923 61.0013 47.1513 61.0013 47.3894V82.3756C61.0013 88.465 57.4121 91.951 51.1602 91.951C48.4631 91.9944 45.8082 91.3281 43.5057 90.0299L34.7692 85.4008C33.7086 84.8303 32.8286 84.0127 32.217 83.0298C31.6054 82.0469 31.2836 80.9329 31.2837 79.7992V44.3671C31.2806 43.2316 31.601 42.1154 32.2128 41.1305C32.8247 40.1457 33.7063 39.3269 34.7692 38.7565L68.0079 21.03C69.0786 20.4889 70.2795 20.2053 71.4999 20.2053C72.7204 20.2053 73.9212 20.4889 74.9919 21.03L108.227 38.7565C109.288 39.326 110.168 40.1423 110.78 41.1242C111.392 42.1061 111.715 43.2191 111.716 44.3522V79.7992C111.714 80.9329 111.391 82.0465 110.779 83.0292C110.167 84.0119 109.287 84.8295 108.227 85.4008L74.9919 103.127C73.9302 103.693 72.7257 103.99 71.4999 103.989Z" fill="white"/>
<path d="M65.1948 67.9427C65.1948 67.7046 65.2972 67.4763 65.4795 67.3079C65.6617 67.1396 65.9089 67.045 66.1666 67.045H70.4652C70.6949 67.0457 70.9169 67.1215 71.0918 67.259C71.2667 67.3965 71.3833 67.5868 71.4208 67.7961C72.0687 71.8387 74.0123 73.8765 82.8005 73.8765C89.8007 73.8765 92.7841 72.4132 92.7841 68.981C92.7841 67.0031 91.9387 65.5339 81.0578 64.5494C71.9618 63.7176 66.3383 61.8563 66.3383 55.1416C66.3383 48.9475 71.9909 45.252 81.4659 45.252C92.1136 45.252 97.384 48.6662 98.0513 55.9914C98.0615 56.1137 98.0444 56.2366 98.0012 56.3526C97.958 56.4686 97.8895 56.5751 97.7999 56.6657C97.7104 56.7562 97.6017 56.8289 97.4806 56.8792C97.3594 56.9294 97.2285 56.9562 97.0957 56.9579H92.7679C92.5508 56.9551 92.341 56.8852 92.1719 56.7594C92.0028 56.6336 91.8842 56.459 91.835 56.2637C90.8017 52.0116 88.2718 50.6531 81.4692 50.6531C73.8244 50.6531 72.9368 53.1128 72.9368 54.956C72.9368 57.1883 73.9863 57.8406 84.3068 59.1004C94.5204 60.3482 99.3729 62.1137 99.3729 68.7446C99.3729 75.4355 93.3348 79.2656 82.8038 79.2656C68.243 79.2836 65.1948 73.1164 65.1948 67.9427Z" fill="white"/>
</g>
<defs>
<filter id="filter0_dd_307_8214" x="0.37904" y="0.097168" width="142.242" height="142.242" filterUnits="userSpaceOnUse" color-interpolation-filters="sRGB">
<feFlood flood-opacity="0" result="BackgroundImageFix"/>
<feColorMatrix in="SourceAlpha" type="matrix" values="0 0 0 0 0 0 0 0 0 0 0 0 0 0 0 0 0 0 127 0" result="hardAlpha"/>
<feOffset dy="9.12096"/>
<feGaussianBlur stdDeviation="4.56048"/>
<feComposite in2="hardAlpha" operator="out"/>
<feColorMatrix type="matrix" values="0 0 0 0 0.513726 0 0 0 0 0.803922 0 0 0 0 0.160784 0 0 0 0.2 0"/>
<feBlend mode="normal" in2="BackgroundImageFix" result="effect1_dropShadow_307_8214"/>
<feColorMatrix in="SourceAlpha" type="matrix" values="0 0 0 0 0 0 0 0 0 0 0 0 0 0 0 0 0 0 127 0" result="hardAlpha"/>
<feOffset dy="9.12096"/>
<feGaussianBlur stdDeviation="4.56048"/>
<feComposite in2="hardAlpha" operator="out"/>
<feColorMatrix type="matrix" values="0 0 0 0 0.513726 0 0 0 0 0.803922 0 0 0 0 0.160784 0 0 0 0.2 0"/>
<feBlend mode="normal" in2="effect1_dropShadow_307_8214" result="effect2_dropShadow_307_8214"/>
<feBlend mode="normal" in="SourceGraphic" in2="effect2_dropShadow_307_8214" result="shape"/>
</filter>
</defs>
</svg>
