<svg width="144" height="143" viewBox="0 0 144 143" fill="none" xmlns="http://www.w3.org/2000/svg">
  <g filter="url(#filter0_dd_307_8207)">
    <rect x="10" y="0.097168" width="124" height="124" rx="41.0443" fill="#38BDF8" shape-rendering="crispEdges" />
    <path d="M113.892 62.1059C113.892 56.4966 106.941 51.1808 96.2845 47.8843C98.7437 36.9074 97.6507 28.1743 92.8347 25.3783C91.7247 24.7225 90.4268 24.4118 89.0093 24.4118V28.2606C89.7949 28.2606 90.4268 28.4159 90.9562 28.7093C93.2788 30.0555 94.2864 35.1815 93.5008 41.7745C93.3129 43.3969 93.0055 45.1056 92.6298 46.8487C89.2826 46.0203 85.6279 45.3817 81.7854 44.9675C79.4799 41.7745 77.089 38.875 74.681 36.3379C80.2484 31.1084 85.4742 28.2433 89.0264 28.2433V24.3945C84.33 24.3945 78.182 27.7773 71.9656 33.6455C65.7493 27.8119 59.6013 24.4636 54.9049 24.4636V28.3124C58.44 28.3124 63.6829 31.1601 69.2503 36.3552C66.8594 38.8923 64.4685 41.7745 62.1971 44.9675C58.3375 45.3817 54.6829 46.0203 51.3356 46.866C50.9429 45.1401 50.6525 43.4659 50.4476 41.8608C49.6449 35.2678 50.6354 30.1418 52.941 28.7784C53.4533 28.4677 54.1193 28.3296 54.9049 28.3296V24.4808C53.4704 24.4808 52.1725 24.7915 51.0453 25.4473C46.2464 28.2433 45.1705 36.9592 47.6468 47.9015C37.0244 51.2153 30.1079 56.5139 30.1079 62.1059C30.1079 67.7151 37.0586 73.0309 47.7151 76.3274C45.2559 87.3043 46.3489 96.0374 51.1649 98.8334C52.2749 99.4893 53.5728 99.7999 55.0074 99.7999C59.7038 99.7999 65.8518 96.4171 72.0681 90.549C78.2844 96.3826 84.4325 99.7309 89.1289 99.7309C90.5634 99.7309 91.8613 99.4202 92.9884 98.7644C97.7873 95.9684 98.8632 87.2525 96.3869 76.3102C106.975 73.0137 113.892 67.6978 113.892 62.1059ZM91.6564 50.594C91.0245 52.8204 90.2389 55.1159 89.3509 57.4114C88.6507 56.0306 87.9163 54.6499 87.1137 53.2692C86.3281 51.8884 85.4913 50.5422 84.6545 49.2305C87.0795 49.5929 89.4192 50.0417 91.6564 50.594ZM83.8347 68.975C82.5027 71.305 81.1364 73.5142 79.719 75.568C77.1744 75.7924 74.5956 75.9132 71.9998 75.9132C69.4211 75.9132 66.8423 75.7924 64.3148 75.5853C62.8973 73.5314 61.514 71.3395 60.1819 69.0268C58.884 66.7658 57.7057 64.4704 56.6298 62.1576C57.6886 59.8449 58.884 57.5322 60.1649 55.2712C61.4969 52.9412 62.8632 50.7321 64.2806 48.6782C66.8252 48.4538 69.404 48.333 71.9998 48.333C74.5786 48.333 77.1573 48.4538 79.6848 48.661C81.1023 50.7148 82.4856 52.9067 83.8177 55.2194C85.1156 57.4804 86.2939 59.7759 87.3698 62.0886C86.2939 64.4013 85.1156 66.7141 83.8347 68.975ZM89.3509 66.7313C90.2731 69.0441 91.0587 71.3568 91.7076 73.6005C89.4704 74.1528 87.1137 74.6188 84.6715 74.9812C85.5084 73.6523 86.3452 72.2888 87.1308 70.8908C87.9163 69.5101 88.6507 68.1121 89.3509 66.7313ZM72.034 85.1469C70.4457 83.49 68.8575 81.6433 67.2863 79.6239C68.8233 79.693 70.3945 79.7448 71.9827 79.7448C73.588 79.7448 75.1763 79.7102 76.7304 79.6239C75.1934 81.6433 73.6051 83.49 72.034 85.1469ZM59.3281 74.9812C56.903 74.6188 54.5633 74.17 52.3262 73.6177C52.958 71.3913 53.7436 69.0958 54.6317 66.8004C55.3318 68.1811 56.0662 69.5618 56.8689 70.9426C57.6715 72.3233 58.4912 73.6695 59.3281 74.9812ZM71.9486 39.0648C73.5368 40.7217 75.125 42.5685 76.6962 44.5878C75.1592 44.5187 73.588 44.467 71.9998 44.467C70.3945 44.467 68.8063 44.5015 67.2522 44.5878C68.7892 42.5685 70.3774 40.7217 71.9486 39.0648ZM59.311 49.2305C58.4742 50.5595 57.6374 51.9229 56.8518 53.3209C56.0662 54.7017 55.3318 56.0824 54.6317 57.4631C53.7095 55.1504 52.9239 52.8377 52.2749 50.594C54.5121 50.0589 56.8689 49.5929 59.311 49.2305ZM43.8556 70.839C37.81 68.2329 33.8992 64.8156 33.8992 62.1059C33.8992 59.3962 37.81 55.9616 43.8556 53.3727C45.3243 52.7341 46.9296 52.1646 48.5861 51.6295C49.5595 55.0123 50.8404 58.5332 52.4286 62.1404C50.8575 65.7303 49.5937 69.2339 48.6373 72.5994C46.9466 72.0644 45.3413 71.4776 43.8556 70.839ZM53.0434 95.5024C50.7208 94.1562 49.7132 89.0302 50.4988 82.4372C50.6867 80.8148 50.9941 79.1062 51.3698 77.363C54.7171 78.1914 58.3717 78.83 62.2142 79.2442C64.5197 82.4372 66.9106 85.3367 69.3186 87.8738C63.7512 93.1034 58.5254 95.9684 54.9732 95.9684C54.2047 95.9511 53.5558 95.7958 53.0434 95.5024ZM93.552 82.3509C94.3547 88.9439 93.3642 94.0699 91.0586 95.4334C90.5463 95.744 89.8803 95.8821 89.0947 95.8821C85.5596 95.8821 80.3167 93.0343 74.7493 87.8393C77.1402 85.3022 79.5311 82.4199 81.8025 79.227C85.6621 78.8128 89.3167 78.1742 92.664 77.3285C93.0568 79.0716 93.3642 80.7458 93.552 82.3509ZM100.127 70.839C98.6583 71.4776 97.053 72.0472 95.3964 72.5822C94.423 69.1994 93.1421 65.6785 91.5539 62.0713C93.1251 58.4814 94.3888 54.9778 95.3452 51.6123C97.0359 52.1473 98.6412 52.7341 100.144 53.3727C106.19 55.9788 110.1 59.3962 110.1 62.1059C110.083 64.8156 106.173 68.2501 100.127 70.839Z" fill="white" />
    <path d="M71.9818 69.9929C76.2922 69.9929 79.7864 66.4616 79.7864 62.1055C79.7864 57.7493 76.2922 54.218 71.9818 54.218C67.6715 54.218 64.1772 57.7493 64.1772 62.1055C64.1772 66.4616 67.6715 69.9929 71.9818 69.9929Z" fill="white" />
  </g>
  <defs>
    <filter id="filter0_dd_307_8207" x="0.87904" y="0.097168" width="142.242" height="142.242" filterUnits="userSpaceOnUse" color-interpolation-filters="sRGB">
      <feFlood flood-opacity="0" result="BackgroundImageFix" />
      <feColorMatrix in="SourceAlpha" type="matrix" values="0 0 0 0 0 0 0 0 0 0 0 0 0 0 0 0 0 0 127 0" result="hardAlpha" />
      <feOffset dy="9.12096" />
      <feGaussianBlur stdDeviation="4.56048" />
      <feComposite in2="hardAlpha" operator="out" />
      <feColorMatrix type="matrix" values="0 0 0 0 0.027451 0 0 0 0 0.494118 0 0 0 0 0.854902 0 0 0 0.2 0" />
      <feBlend mode="normal" in2="BackgroundImageFix" result="effect1_dropShadow_307_8207" />
      <feColorMatrix in="SourceAlpha" type="matrix" values="0 0 0 0 0 0 0 0 0 0 0 0 0 0 0 0 0 0 127 0" result="hardAlpha" />
      <feOffset dy="9.12096" />
      <feGaussianBlur stdDeviation="4.56048" />
      <feComposite in2="hardAlpha" operator="out" />
      <feColorMatrix type="matrix" values="0 0 0 0 0.0313726 0 0 0 0 0.639216 0 0 0 0 0.901961 0 0 0 0.1 0" />
      <feBlend mode="normal" in2="effect1_dropShadow_307_8207" result="effect2_dropShadow_307_8207" />
      <feBlend mode="normal" in="SourceGraphic" in2="effect2_dropShadow_307_8207" result="shape" />
    </filter>
  </defs>
</svg>